<?xml version="1.0" encoding="UTF-8"?>
<svg id="Camada_2" data-name="Camada 2" xmlns="http://www.w3.org/2000/svg" xmlns:xlink="http://www.w3.org/1999/xlink" viewBox="0 0 447.8 429.35">
  <defs>
    <style>
      .cls-1 {
        fill: url(#Gradiente_sem_nome_2);
      }

      .cls-2 {
        fill: url(#Gradiente_sem_nome_12);
      }

      .cls-3 {
        fill: #fcf6d2;
      }

      .cls-4 {
        fill: url(#Gradiente_sem_nome_51-2);
      }

      .cls-5 {
        fill: #f946b2;
      }

      .cls-6 {
        fill: url(#Gradiente_sem_nome_51);
      }
    </style>
    <radialGradient id="Gradiente_sem_nome_2" data-name="Gradiente sem nome 2" cx="248.11" cy="183.02" fx="248.11" fy="183.02" r="76.54" gradientUnits="userSpaceOnUse">
      <stop offset="0" stop-color="#f946b2"/>
      <stop offset="1" stop-color="#01f2f3"/>
    </radialGradient>
    <linearGradient id="Gradiente_sem_nome_12" data-name="Gradiente sem nome 12" x1="21.63" y1="212.15" x2="167.31" y2="212.15" gradientUnits="userSpaceOnUse">
      <stop offset="0" stop-color="#f946b2"/>
      <stop offset="1" stop-color="#01f2f3"/>
    </linearGradient>
    <linearGradient id="Gradiente_sem_nome_51" data-name="Gradiente sem nome 51" x1="326.01" y1="237.24" x2="376.51" y2="237.24" gradientUnits="userSpaceOnUse">
      <stop offset="0" stop-color="#f946b2"/>
      <stop offset="1" stop-color="#01f2f3"/>
    </linearGradient>
    <linearGradient id="Gradiente_sem_nome_51-2" data-name="Gradiente sem nome 51" x1="328.6" y1="112.37" x2="372.63" y2="112.37" xlink:href="#Gradiente_sem_nome_51"/>
  </defs>
  <g id="Layer_1" data-name="Layer 1">
    <g>
      <path d="M447.8,330.23v-20.45c0-4.95-1.26-9.6-3.45-13.68h0s0,0,0,0c-.42-.78-12.53-20.89-12.53-20.89h0c-4.28-7.99-12.2-13.74-21.52-15.03.01-.41.02-.83.02-1.24,0-10.27-2.97-19.55-8.83-27.68-.73-1.49-1.55-2.95-2.44-4.38,4.9-7.32,7.39-16.26,7.39-26.69V67.64c0-11.53-3-21.42-8.93-29.45-1.18-2.46-12.51-21.21-15.34-24.33-8.2-9.06-18.95-13.85-31.1-13.85s-22.73,4.47-31.17,12.91c-8.57,8.56-12.91,19.92-12.91,33.76v57.56c-6.84-5.89-14.25-10.63-22.15-14.15-11.49-5.12-24.13-7.72-37.56-7.72s-26.5,2.51-37.95,7.45c-9.45,4.08-18.08,9.85-25.74,17.21-1.7-3.26-3.84-6.29-6.39-9.1-7.94-8.7-18.35-13.3-30.13-13.3-8.29,0-16.18,2.26-23.05,6.58-2.87-1.65-5.95-3.09-9.18-4.3-8.01-3.02-16.52-4.55-25.3-4.55-12.78,0-24.78,2.67-35.66,7.94-10.82,5.23-20.64,13.09-29.19,23.34C8.3,133.24,0,156.99,0,184.23c0,20.16,6.09,39.84,18.1,58.51,1.31,2.34,2.7,4.67,4.19,6.99.34.62.69,1.23,1.05,1.85-2.34,1.28-4.57,2.8-6.66,4.56h-.01s-.01.02-.01.02l-.19.16c-4.47,3.79-7.92,8.25-10.28,13.24-2.38,5.04-3.58,10.51-3.58,16.27,0,8.02,2.22,15.59,6.6,22.52.54.85,1.11,1.69,1.72,2.53.73,1.51,1.55,3,2.47,4.46.54.85,1.11,1.69,1.72,2.53.73,1.51,1.55,3,2.47,4.46.54.85,1.11,1.69,1.72,2.53.73,1.51,1.55,3,2.47,4.46,4.14,6.54,10.25,12.52,18.16,17.76,15.87,10.61,36.47,15.99,61.24,15.99,16.74,0,31.87-2.78,44.96-8.26,5.42-2.27,10.52-5.02,15.28-8.22.94,4.75,17.54,32.82,19.89,35.37,5.56,6.04,13.29,9.38,21.77,9.38,7.5,0,14.39-2.64,19.69-7.4,4.45,3.46,11.2,7.4,19.42,7.4,4.38,0,8.65-.95,12.55-2.78,3.95,1.82,8.36,2.78,12.95,2.78,8.63,0,16.42-3.31,21.94-9.33,1.17-1.28,2.21-2.64,3.12-4.08l.91,1.2c2.77,3.67,6.23,6.61,10.3,8.74,4.38,2.3,9.04,3.47,13.83,3.47,5.79,0,11.2-1.5,15.81-4.3-1.55,3.85-1.46,8.18.4,12.05.82,1.71,12.19,20.15,12.58,20.96,2.57,5.35,8.01,8.81,13.85,8.81h25.12c5.19,0,9.78-2.58,12.57-6.53,5.4,4.5,12.14,7.01,19.23,7.01,16.57,0,30.05-13.48,30.05-30.05,0-6.93-2.32-13.49-6.6-18.8-.35-.82-.73-1.62-1.15-2.4,3.03-2.82,4.93-6.85,4.93-11.33s-1.82-8.25-4.74-11.03c-.39-1.41-.97-2.73-1.72-3.95,5.94-5.3,9.68-13,9.68-21.57Z"/>
      <g>
        <g>
          <path class="cls-3" d="M379.08,322.57c0,3.62-2.9,6.52-6.52,6.52h-25.12c-4.91,0-8.62-5.88-5.07-10.31l21.26-26.09c2.5-3.06,2.09-7.57-1.05-10.14-2.98-2.5-7.57-2.01-10.14,1.05-2.09,2.58-5.88,2.98-8.53.89-2.58-2.17-2.98-6.04-.89-8.53,6.84-8.29,19.16-9.66,27.38-2.74,8.37,7.01,9.82,18.6,2.66,27.29l-12.8,15.62h12.32c3.62,0,6.52,2.9,6.52,6.44Z"/>
          <path class="cls-3" d="M406.3,329.57c-10.95,0-20.05-9.02-20.05-20.05v-20.45c0-11.03,9.1-20.05,20.05-20.05s20.05,9.02,20.05,20.05v20.45c0,11.03-8.94,20.05-20.05,20.05ZM399.05,289.07v20.45c0,3.95,3.22,7.33,7.25,7.33s7.25-3.38,7.25-7.33v-20.45c0-3.95-3.22-7.33-7.25-7.33s-7.25,3.38-7.25,7.33Z"/>
          <path class="cls-3" d="M379.49,392.76c0,3.62-2.9,6.52-6.52,6.52h-25.12c-4.91,0-8.62-5.88-5.07-10.31l21.26-26.09c2.5-3.06,2.09-7.57-1.05-10.14-2.98-2.5-7.57-2.01-10.14,1.05-2.09,2.58-5.88,2.98-8.53.89-2.58-2.17-2.98-6.04-.89-8.53,6.84-8.29,19.16-9.66,27.38-2.74,8.37,7.01,9.82,18.6,2.66,27.29l-12.8,15.62h12.32c3.62,0,6.52,2.9,6.52,6.44Z"/>
          <path class="cls-3" d="M425.94,378.59c0,11.67-9.5,21.18-21.18,21.18-6.6,0-12.64-3.06-16.75-8.21-2.25-2.9-1.69-6.84,1.21-9.1,2.82-2.09,6.76-1.61,8.94,1.21,4.59,5.96,14.98,3.06,14.98-5.07,0-4.59-3.7-8.37-8.37-8.37-1.85,0-3.54.64-4.99,1.69-2.9,2.25-6.92,1.69-9.02-1.13-1.21-1.53-1.53-3.46-1.21-5.23l2.98-20.37c.4-3.14,3.22-5.48,6.36-5.48h17.87c3.54,0,6.36,2.9,6.36,6.36s-2.82,6.52-6.36,6.52h-12.4l-.72,4.83h1.13c11.67,0,21.18,9.42,21.18,21.18Z"/>
        </g>
        <g>
          <path class="cls-1" d="M247.47,103.7c-21.54,0-39.09,7.54-52.65,22.62-13.57,15.08-20.35,34.68-20.35,58.8s6.89,43.73,20.68,57.51c13.13,13.14,30.25,19.71,51.36,19.71s39.19-7.64,53.62-22.93c14.43-15.29,21.65-34.14,21.65-56.54s-7.16-39.85-21.48-55.57c-14.32-15.72-31.93-23.59-52.82-23.59ZM306.93,173.05c0,3.84-3.13,6.97-6.97,6.97-3.05,0-5.65-1.97-6.59-4.71h-23.09v17.92h23.09c.94-2.73,3.54-4.71,6.59-4.71,3.84,0,6.97,3.13,6.97,6.97s-3.13,6.97-6.97,6.97c-3.05,0-5.65-1.97-6.59-4.71h-23.09v6.72c0,1.25-1.01,2.26-2.26,2.26h-3.98v13.28h12.93c.99-2.64,3.54-4.52,6.52-4.52,3.84,0,6.97,3.13,6.97,6.97s-3.13,6.97-6.97,6.97c-3.12,0-5.76-2.06-6.65-4.89h-15.07c-1.25,0-2.26-1.01-2.26-2.26v-15.54h-9.95v31.02h6.6c.99-2.64,3.54-4.52,6.52-4.52,3.84,0,6.97,3.13,6.97,6.97s-3.13,6.97-6.97,6.97c-3.12,0-5.76-2.06-6.65-4.89h-8.73c-1.25,0-2.26-1.01-2.26-2.26v-33.28h-6.51v19.16c0,1.25-1.01,2.26-2.26,2.26h-13.93c-.99,2.64-3.54,4.52-6.52,4.52-3.84,0-6.97-3.13-6.97-6.97s3.13-6.97,6.97-6.97c3.12,0,5.76,2.06,6.65,4.89h11.54v-16.9h-6.51c-1.25,0-2.26-1.01-2.26-2.26v-6.72h-22.37c-.94,2.73-3.54,4.71-6.59,4.71-3.84,0-6.97-3.13-6.97-6.97s3.13-6.97,6.97-6.97c3.05,0,5.65,1.97,6.59,4.71h22.37v-17.92h-22.37c-.94,2.73-3.54,4.71-6.59,4.71-3.84,0-6.97-3.13-6.97-6.97s3.13-6.97,6.97-6.97c3.05,0,5.65,1.97,6.59,4.71h22.37v-5.81c0-1.25,1.01-2.26,2.26-2.26h3.26v-17.08h-11.54c-.89,2.83-3.53,4.89-6.65,4.89-3.84,0-6.97-3.13-6.97-6.97s3.13-6.97,6.97-6.97c2.98,0,5.53,1.88,6.52,4.52h13.93c1.25,0,2.26,1.01,2.26,2.26v19.34h6.51v-33.46c0-1.25,1.01-2.26,2.26-2.26h8.73c.89-2.83,3.53-4.89,6.65-4.89,3.84,0,6.97,3.13,6.97,6.97s-3.13,6.97-6.97,6.97c-2.98,0-5.53-1.88-6.52-4.52h-6.6v31.2h9.95v-15.73c0-1.25,1.01-2.26,2.26-2.26h15.07c.89-2.83,3.53-4.89,6.65-4.89,3.84,0,6.97,3.13,6.97,6.97s-3.13,6.97-6.97,6.97c-2.98,0-5.53-1.88-6.52-4.52h-12.93v13.46h7.24c1.25,0,2.26,1.01,2.26,2.26v5.81h23.09c.94-2.73,3.54-4.71,6.59-4.71,3.84,0,6.97,3.13,6.97,6.97Z"/>
          <path class="cls-5" d="M305.53,268.21c-3.17,0-5.71,1.01-7.54,3-1.79,1.95-2.7,4.45-2.7,7.45l-.19,35.11-31.26-41.23c-2.11-2.87-4.97-4.33-8.52-4.33-3.1,0-5.6,1.01-7.43,3.01-1.79,1.95-2.7,4.43-2.7,7.36v61.76c0,3.1.92,5.63,2.73,7.51,1.83,1.9,4.32,2.87,7.4,2.87s5.69-1,7.49-2.96c1.75-1.92,2.64-4.42,2.64-7.41l.29-34.9,31.16,40.83c1,1.34,2.28,2.43,3.8,3.22,1.54.81,3.13,1.22,4.72,1.22,3.17,0,5.71-1.01,7.54-3,1.79-1.94,2.7-4.46,2.7-7.47v-61.67c0-2.95-.96-5.43-2.85-7.39-1.91-1.98-4.36-2.98-7.28-2.98Z"/>
          <path class="cls-2" d="M147.26,105.97c-9.21,0-16.55,5.07-22.03,15.21-3.88-6.56-9.79-11.33-17.75-14.3-5.6-2.11-11.51-3.17-17.75-3.17-19.15,0-35.29,7.86-48.41,23.59-13.13,15.72-19.69,34.68-19.69,56.86,0,16.16,4.95,31.88,14.85,47.17,12.47,19.18,28.83,28.76,49.06,28.76,5.8,0,12.37-1.3,19.68-3.89,6.04-2.11,10.98-4.83,14.82-8.13,1.74-1.5,4.4.05,3.98,2.3-1.87,10.14-4.7,17.37-8.5,21.69-4.75,5.39-12.95,8.09-24.61,8.09-10.36,0-18.89-1.44-25.58-4.31-4.83-2.08-9.7-4.16-14.63-6.23-6.7-2.81-14.48-1.82-20.04,2.86-.04.04-.08.07-.13.11-4.21,3.58-6.31,7.98-6.31,13.19,0,8.25,5.08,15.74,15.25,22.47,12.33,8.25,28.77,12.38,49.32,12.38,27.47,0,48.23-8.53,62.3-25.57,10.81-13.17,16.22-28.38,16.22-45.65v-121.41c0-6.26-1.92-11.49-5.75-15.7-3.84-4.2-8.61-6.31-14.3-6.31ZM133.32,154.72c3.33-.31,6.28,2.14,6.59,5.47.31,3.33-2.14,6.28-5.47,6.59-3.33.31-6.28-2.14-6.59-5.47-.31-3.33,2.14-6.28,5.47-6.59ZM116.78,136.01c4.07-.38,7.67,2.62,8.05,6.68.38,4.07-2.62,7.67-6.68,8.05-4.07.38-7.67-2.62-8.05-6.68-.38-4.07,2.62-7.67,6.68-8.05ZM72.71,125.85c6.63-.61,12.51,4.27,13.12,10.9.61,6.63-4.27,12.51-10.9,13.12-6.63.61-12.51-4.27-13.12-10.9-.61-6.63,4.27-12.51,10.9-13.12ZM68.17,167.51c4.79-.44,9.03,3.08,9.47,7.87.44,4.79-3.08,9.03-7.87,9.47-4.79.44-9.03-3.08-9.47-7.87-.44-4.79,3.08-9.03,7.87-9.47ZM96.93,195.58c-.31-3.33,2.14-6.28,5.47-6.59,3.33-.31,6.28,2.14,6.59,5.47.31,3.33-2.14,6.28-5.47,6.59-3.33.31-6.28-2.14-6.59-5.47ZM110.86,240.2c-4.79.44-9.03-3.08-9.47-7.87-.44-4.79,3.08-9.03,7.87-9.47,4.79-.44,9.03,3.08,9.47,7.87.44,4.79-3.08,9.03-7.87,9.47ZM140.81,221.31c-3.33.31-6.28-2.14-6.59-5.47-.31-3.33,2.14-6.28,5.47-6.59,3.33-.31,6.28,2.14,6.59,5.47.31,3.33-2.14,6.28-5.47,6.59ZM135.41,203.75c-7.33.68-13.82-4.71-14.49-12.04-.06-.6-.07-1.2-.05-1.79.17-4.13-1.55-7.75-4.85-10.23l-.87-.65c-3.3-2.48-7.27-3.11-11.18-1.8-.96.32-1.98.54-3.04.64-.21.02-.42.03-.62.04-4.12.19-7.59,2.22-9.77,5.73l-5.67,9.12c-2.32,3.74-2.5,8.09-.48,12,.91,1.77,1.51,3.75,1.71,5.85.81,8.79-5.66,16.58-14.45,17.39-8.79.81-16.58-5.66-17.39-14.45-.81-8.79,5.66-16.58,14.45-17.39.59-.05,1.18-.08,1.77-.07,4.4.08,8.21-2,10.54-5.74l5.67-9.12c2.18-3.51,2.47-7.51.81-11.3-.56-1.27-.92-2.65-1.06-4.11-.68-7.33,4.71-13.82,12.04-14.49,7.33-.68,13.82,4.71,14.49,12.04.06.6.07,1.2.05,1.79-.17,4.13,1.55,7.75,4.85,10.23l.87.65c3.3,2.48,7.27,3.11,11.18,1.8.96-.32,1.98-.54,3.04-.64,7.33-.68,13.82,4.71,14.49,12.04.68,7.33-4.71,13.82-12.04,14.49Z"/>
          <path class="cls-5" d="M230.54,326.47c-3.21-3.18-6.37-6.34-9.45-9.42,4.85-1.36,8.84-3.47,11.89-6.29,4.31-3.93,6.5-9.11,6.5-15.37,0-8.9-2.78-15.75-8.25-20.35-4.94-4.16-12.01-6.27-21.03-6.27h-19.27c-3.15,0-5.7.98-7.57,2.92-1.85,1.91-2.78,4.46-2.78,7.56v61c0,2.94.93,5.43,2.75,7.41,1.87,2.03,4.35,3.06,7.37,3.06,4.36,0,7.62-2.25,9.42-6.5,1.24-2.95,1.84-7.06,1.84-12.56,0-2.23-.1-4.59-.29-7.02-.04-.51-.08-1.02-.11-1.53l4.67,6.25c4.46,5.83,8.43,10.57,11.82,14.08,4.79,4.9,8.64,7.28,11.76,7.28,2.76,0,5.18-1.01,7.2-3,2.02-2,3.04-4.4,3.04-7.15,0-1.86-1.07-5.13-9.46-14.05l-.05-.05Z"/>
          <path class="cls-6" d="M351.58,212.15c-7.12,0-13.17,2.36-18.13,7.08-4.97,4.72-7.45,10.51-7.45,17.37s2.43,13.14,7.28,18.17c4.86,5.03,10.73,7.56,17.64,7.56s12.9-2.41,17.97-7.24c5.07-4.83,7.61-10.56,7.61-17.21s-2.38-12.86-7.12-18.02c-4.75-5.14-10.69-7.72-17.81-7.72Z"/>
          <path class="cls-4" d="M349.96,203.41c6.26,0,11.6-2.05,16.03-6.15,4.42-4.1,6.64-10.14,6.64-18.13V46.59c0-7.77-2.05-13.92-6.15-18.45-4.1-4.53-9.17-6.8-15.21-6.8s-11.61,2.22-16.02,6.64c-4.43,4.42-6.64,10.63-6.64,18.61v132.54c0,7.77,2.1,13.76,6.31,17.97,4.2,4.21,9.22,6.31,15.05,6.31Z"/>
        </g>
      </g>
    </g>
  </g>
</svg>